<?xml version="1.0" encoding="UTF-8"?>
<svg version="1.1" xmlns="http://www.w3.org/2000/svg" width="500" height="500">
<path d="M0 0 C165 0 330 0 500 0 C500 165 500 330 500 500 C335 500 170 500 0 500 C0 335 0 170 0 0 Z " fill="#000000" transform="translate(0,0)"/>
<path d="M0 0 C0.66887741 -0.00832352 1.33775482 -0.01664703 2.02690125 -0.02522278 C4.23454653 -0.04928215 6.44189577 -0.05809163 8.6496582 -0.06469727 C10.19179876 -0.07366981 11.73393844 -0.08279177 13.27607727 -0.09205627 C16.50991934 -0.10853997 19.74365799 -0.11624469 22.97753906 -0.11914062 C27.10224908 -0.12451042 31.2259732 -0.16213351 35.35040569 -0.20788479 C38.53765822 -0.2377773 41.72467742 -0.24486687 44.91205788 -0.24586678 C46.43138943 -0.25004838 47.95072301 -0.26239928 49.46991539 -0.28338432 C58.05223287 -0.39245479 65.28688131 -0.26254141 72.26293945 5.30639648 C74.94262695 7.92749023 74.94262695 7.92749023 77.13793945 10.74389648 C77.54520264 11.25686279 77.95246582 11.7698291 78.37207031 12.29833984 C79.68369758 13.95674492 80.97315601 15.63096827 82.26293945 17.30639648 C83.18195721 18.47689003 84.10255384 19.64614549 85.0246582 20.81420898 C92.24091369 29.97015569 92.24091369 29.97015569 95.67700195 34.46264648 C96.42723633 35.42170898 97.1774707 36.38077148 97.95043945 37.36889648 C98.91530273 38.62379883 98.91530273 38.62379883 99.8996582 39.90405273 C105.38039796 45.47538323 112.08702714 48.24326289 119.3996582 50.64624023 C121.12834257 51.24015034 122.85685319 51.83456638 124.58520508 52.42944336 C127.27532109 53.34255234 129.96722749 54.24948645 132.66259766 55.14697266 C135.28924747 56.02602129 137.90699116 56.92835232 140.5246582 57.83374023 C141.32683273 58.09332016 142.12900726 58.35290009 142.95549011 58.62034607 C148.36446861 60.51051626 151.04104533 62.53176355 154.26293945 67.30639648 C154.99164418 69.62110561 155.65533463 71.95699118 156.26293945 74.30639648 C157.22799613 76.41551229 158.27459171 78.46045735 159.3605957 80.50952148 C162.60155323 86.9633763 162.42789875 96.28148973 160.4387207 103.15405273 C159.48012936 105.28861114 158.44246306 107.28743089 157.26293945 109.30639648 C156.58978125 110.63646425 155.92128968 111.96893725 155.26293945 113.30639648 C154.60293945 113.30639648 153.94293945 113.30639648 153.26293945 113.30639648 C152.93293945 114.29639648 152.60293945 115.28639648 152.26293945 116.30639648 C149.3048347 117.78544886 146.30822395 117.42830551 143.06762695 117.40405273 C142.36018341 117.40263779 141.65273987 117.40122284 140.92385864 117.39976501 C138.66184277 117.39416249 136.39992547 117.38160966 134.13793945 117.36889648 C132.6053888 117.36388181 131.07283659 117.35931884 129.5402832 117.35522461 C125.78113057 117.34419225 122.02205173 117.326926 118.26293945 117.30639648 C117.98595215 116.20013916 117.98595215 116.20013916 117.70336914 115.0715332 C117.44974609 114.09458496 117.19612305 113.11763672 116.93481445 112.11108398 C116.68828125 111.1467041 116.44174805 110.18232422 116.18774414 109.1887207 C114.02049949 102.43410338 109.99138635 97.26040796 104.16918945 93.27905273 C96.33243111 89.28037891 86.29300055 88.6672697 77.88793945 91.36889648 C70.39824551 94.8330804 65.76266169 100.29509607 62.1730957 107.58374023 C60.89626986 111.10602056 60.89626986 111.10602056 60.26293945 118.30639648 C38.15293945 118.30639648 16.04293945 118.30639648 -6.73706055 118.30639648 C-7.72706055 112.86139648 -7.72706055 112.86139648 -8.73706055 107.30639648 C-12.81373676 99.26952053 -18.34938141 93.79296145 -26.73706055 90.30639648 C-35.84049715 89.13556566 -44.52122817 89.21026189 -52.4284668 94.34936523 C-59.91314728 100.69424666 -62.83900129 107.66600532 -63.73706055 117.30639648 C-66.00731023 117.38736972 -68.2783813 117.44557352 -70.54956055 117.49389648 C-72.44641602 117.54610352 -72.44641602 117.54610352 -74.3815918 117.59936523 C-77.73706055 117.30639648 -77.73706055 117.30639648 -79.42152405 116.09028625 C-81.13848243 113.76206161 -81.12309785 112.35035242 -81.14111328 109.47119141 C-81.15379745 108.48974655 -81.16648163 107.5083017 -81.17955017 106.49711609 C-81.17661453 105.43773331 -81.17367889 104.37835052 -81.1706543 103.28686523 C-81.17589615 102.19553787 -81.181138 101.10421051 -81.1865387 99.97981262 C-81.19296641 97.66900483 -81.19161227 95.35816435 -81.18310547 93.04736328 C-81.17461821 89.51787629 -81.20331169 85.99001943 -81.23510742 82.46069336 C-81.2367201 80.21525114 -81.23614063 77.96980605 -81.2331543 75.72436523 C-81.24438828 74.67105515 -81.25562225 73.61774506 -81.26719666 72.53251648 C-81.21002388 66.49340848 -80.85951267 62.85012444 -76.73706055 58.30639648 C-74.94799805 56.97949219 -74.94799805 56.97949219 -73.11206055 56.16967773 C-72.4159668 55.85724121 -71.71987305 55.54480469 -71.00268555 55.22290039 C-66.09292434 53.23677501 -61.14477622 51.35666127 -56.15893555 49.57006836 C-45.94543662 45.67734676 -40.10039106 39.02073438 -33.92456055 30.24389648 C-32.71263667 28.56304135 -31.49907701 26.8833645 -30.28393555 25.20483398 C-29.6890332 24.37951172 -29.09413086 23.55418945 -28.48120117 22.70385742 C-25.93989783 19.2106325 -23.32851797 15.77704435 -20.67456055 12.36889648 C-20.24618896 11.80871826 -19.81781738 11.24854004 -19.37646484 10.67138672 C-13.84617876 3.60873007 -8.98292259 0.07915146 0 0 Z " fill="#FAFAFA" transform="translate(230.737060546875,331.693603515625)"/>
<path d="M0 0 C6.93 0 13.86 0 21 0 C24.36836629 10.10509886 24.36836629 10.10509886 25.39453125 14.390625 C25.62454834 15.33583008 25.85456543 16.28103516 26.09155273 17.25488281 C26.44842163 18.73746582 26.44842163 18.73746582 26.8125 20.25 C28.70258587 27.96622685 30.70087298 35.62707259 32.9375 43.25 C35.44352641 51.82744877 37.69838221 60.45827432 39.875 69.125 C40.1855835 70.35379883 40.49616699 71.58259766 40.81616211 72.84863281 C41.10112549 73.99428711 41.38608887 75.13994141 41.6796875 76.3203125 C41.93476074 77.34398926 42.18983398 78.36766602 42.45263672 79.42236328 C43 82 43 82 43 85 C43.66 85 44.32 85 45 85 C45.11730469 83.8965625 45.23460937 82.793125 45.35546875 81.65625 C46.00409637 76.52100127 47.13213934 71.53598589 48.3125 66.5 C48.55959717 65.43716797 48.80669434 64.37433594 49.0612793 63.27929688 C52.03034476 50.65840953 55.17638448 38.08018806 58.3125 25.5 C58.58470367 24.40582764 58.85690735 23.31165527 59.13735962 22.18432617 C59.91821678 19.04926354 60.70259336 15.91510506 61.48828125 12.78125 C61.84575439 11.34543579 61.84575439 11.34543579 62.21044922 9.88061523 C62.43144287 9.00284424 62.65243652 8.12507324 62.88012695 7.22070312 C63.16941826 6.06592468 63.16941826 6.06592468 63.46455383 4.88781738 C64 3 64 3 65 1 C75.23 1 85.46 1 96 1 C95.33881744 4.96709535 94.64577786 8.61426707 93.6171875 12.46484375 C93.34100586 13.49891357 93.06482422 14.5329834 92.78027344 15.59838867 C92.33216309 17.25124878 92.33216309 17.25124878 91.875 18.9375 C91.56079102 20.10063721 91.24658203 21.26377441 90.92285156 22.4621582 C88.98287503 29.57621302 86.93434056 36.64499756 84.75 43.6875 C77.0419376 68.55437957 70.22990283 93.72316164 63.58154297 118.89160156 C63.10757788 120.60997374 62.56368838 122.30893487 62 124 C51.44 124 40.88 124 30 124 C27.29954699 115.89864097 24.83049539 107.92720968 22.6875 99.6875 C20.08212394 89.81897645 17.26726086 80.039146 14.22143555 70.29760742 C13.80631714 68.96499878 13.80631714 68.96499878 13.3828125 67.60546875 C13.13934082 66.83356201 12.89586914 66.06165527 12.64501953 65.26635742 C11.96066088 62.86177705 11.45928062 60.45663618 11 58 C9.05395036 60.91907446 8.37933653 62.82570011 7.51953125 66.171875 C7.2460083 67.21762695 6.97248535 68.26337891 6.69067383 69.34082031 C6.25597778 71.02836426 6.25597778 71.02836426 5.8125 72.75 C3.23889144 82.5380167 0.49076766 92.24507194 -2.5144043 101.90917969 C-4.79438985 109.24747506 -6.88645138 116.60257982 -9 124 C-19.56 124 -30.12 124 -41 124 C-41.85722656 120.94621094 -42.71445313 117.89242187 -43.59765625 114.74609375 C-44.75128148 110.64285629 -45.90661511 106.54010146 -47.0625 102.4375 C-47.36134094 101.37680298 -47.66018188 100.31610596 -47.96807861 99.2232666 C-51.41542725 86.99964457 -54.89884043 74.7992283 -58.67797852 62.67358398 C-61.12675088 54.75153433 -63.24820211 46.74987559 -65.36108398 38.73266602 C-67.6326427 30.17875732 -70.15909953 21.7207166 -72.8671875 13.29492188 C-73.14691406 12.40740234 -73.42664063 11.51988281 -73.71484375 10.60546875 C-73.96355225 9.83356201 -74.21226074 9.06165527 -74.46850586 8.26635742 C-75 6 -75 6 -75 1 C-64.77 1 -54.54 1 -44 1 C-41.53620051 10.78732949 -39.0754307 20.57540717 -36.61993504 30.36482334 C-35.47954156 34.91076432 -34.33784159 39.45636869 -33.19311523 44.0012207 C-32.0877399 48.39004488 -30.9858496 52.77973073 -29.88633537 57.17002678 C-29.46696021 58.84199898 -29.04634586 60.51366089 -28.62445259 62.18499947 C-28.03220601 64.53210153 -27.44443843 66.8802841 -26.85766602 69.22875977 C-26.68359726 69.91424896 -26.5095285 70.59973816 -26.33018494 71.30599976 C-25.28079312 75.53040646 -24.54898073 79.689479 -24 84 C-23.34 84 -22.68 84 -22 84 C-21.88914063 82.87078125 -21.77828125 81.7415625 -21.6640625 80.578125 C-21.06300372 75.79897468 -19.77060052 71.34938269 -18.375 66.75 C-15.85709774 58.21745103 -13.61964508 49.63968512 -11.5 41 C-8.10419029 27.20434681 -4.49419174 13.48257521 0 0 Z " fill="#FCFCFC" transform="translate(116,165)"/>
<path d="M0 0 C8.58 0 17.16 0 26 0 C32.55236373 15.31836385 38.92300889 30.68173591 45.08007812 46.16137695 C48.83184568 55.59072602 52.61353734 65.00739892 56.421875 74.4140625 C56.89199005 75.57565887 57.3621051 76.73725525 57.84646606 77.93405151 C59.73727656 82.60518784 61.62842733 87.27618152 63.52313232 91.94573975 C64.85303554 95.22356665 66.18058653 98.50233832 67.5078125 101.78125 C67.90208435 102.75083649 68.2963562 103.72042297 68.70257568 104.71939087 C69.07803528 105.64794891 69.45349487 106.57650696 69.84033203 107.53320312 C70.32326218 108.7238739 70.32326218 108.7238739 70.81594849 109.93859863 C72.6179704 114.59778134 74.29281411 119.30523879 76 124 C65.77 124 55.54 124 45 124 C43.68 120.431875 42.36 116.86375 41 113.1875 C40.58234375 112.06625732 40.1646875 110.94501465 39.734375 109.78979492 C39.40953125 108.90396729 39.0846875 108.01813965 38.75 107.10546875 C38.24726563 105.74651489 38.24726563 105.74651489 37.734375 104.36010742 C37 102 37 102 37 99 C21.16 99 5.32 99 -11 99 C-11.33 100.65 -11.66 102.3 -12 104 C-12.51301671 105.63082 -13.05719645 107.2520991 -13.62890625 108.86328125 C-13.91064697 109.66290283 -14.1923877 110.46252441 -14.48266602 111.28637695 C-14.83901123 112.28499756 -15.19535645 113.28361816 -15.5625 114.3125 C-16.696875 117.509375 -17.83125 120.70625 -19 124 C-29.23 124 -39.46 124 -50 124 C-46.62517394 113.87552182 -46.62517394 113.87552182 -45.09667969 110.109375 C-44.74987152 109.25088959 -44.40306335 108.39240417 -44.04574585 107.50790405 C-43.67486847 106.59779572 -43.30399109 105.68768738 -42.921875 104.75 C-42.52207428 103.76230621 -42.12227356 102.77461243 -41.71035767 101.75698853 C-40.39281827 98.50360672 -39.07145421 95.25179344 -37.75 92 C-36.34756234 88.5411353 -34.94597354 85.08192736 -33.54440308 81.62271118 C-32.56323286 79.20133065 -31.58172047 76.78008874 -30.59988403 74.35897827 C-27.18677676 65.94123973 -23.78935959 57.51728124 -20.40093994 49.08957672 C-19.60677049 47.11451453 -18.81224248 45.139597 -18.01757812 43.16473389 C-17.75820213 42.52013592 -17.49882614 41.87553795 -17.23159027 41.21140671 C-16.71243943 39.92124445 -16.19327954 38.63108584 -15.67411041 37.34093094 C-14.40114897 34.17714122 -13.12905754 31.01300673 -11.85876465 27.84814453 C-10.43676926 24.30669496 -9.01167752 20.76650586 -7.5859375 17.2265625 C-7.16494781 16.17570465 -6.74395813 15.1248468 -6.31021118 14.04214478 C-5.91699677 13.06740204 -5.52378235 12.0926593 -5.11865234 11.08837891 C-4.78006195 10.24594635 -4.44147156 9.40351379 -4.09262085 8.53555298 C-2.84392636 5.63781308 -1.41110839 2.82221678 0 0 Z " fill="#FCFCFC" transform="translate(256,165)"/>
<path d="M0 0 C8.58 0 17.16 0 26 0 C28.61384283 5.22768566 31.02726309 10.29402879 33.15234375 15.703125 C33.59090698 16.80586258 33.59090698 16.80586258 34.03833008 17.93087769 C34.67367235 19.52919685 35.30748126 21.12812621 35.93991089 22.7276001 C37.69185602 27.15738604 39.45619504 31.58223991 41.21875 36.0078125 C41.59627914 36.95659271 41.97380829 37.90537292 42.36277771 38.88290405 C47.17989793 50.98016271 52.05959543 63.05215618 56.9375 75.125 C57.80917411 77.28417537 58.68083774 79.44335497 59.55249023 81.60253906 C60.39818485 83.69599986 61.24396792 85.78942492 62.08984375 87.8828125 C62.49690048 88.89085938 62.90395721 89.89890625 63.323349 90.9375 C65.40721618 96.09063396 67.50634875 101.23689585 69.62939453 106.37402344 C70.04951309 107.39253387 70.46963165 108.41104431 70.90248108 109.4604187 C71.70264329 111.3976724 72.5057608 113.33370885 73.3122406 115.26834106 C73.66625443 116.12579926 74.02026825 116.98325745 74.38500977 117.86669922 C74.69801529 118.61958221 75.01102081 119.37246521 75.33351135 120.14816284 C76 122 76 122 76 124 C66.1 124 56.2 124 46 124 C40.29723502 110.31336406 40.29723502 110.31336406 38.6875 105.875 C38.36136719 104.98554687 38.03523438 104.09609375 37.69921875 103.1796875 C37 101 37 101 37 99 C21.49 99.33 5.98 99.66 -10 100 C-12.97 107.92 -15.94 115.84 -19 124 C-29.23 124 -39.46 124 -50 124 C-42.97106797 105.37333013 -35.53031305 86.93940741 -27.98413086 68.51757812 C-27.10917432 66.38152595 -26.23425601 64.24545811 -25.359375 62.109375 C-24.92162247 61.04066162 -24.48386993 59.97194824 -24.03285217 58.87084961 C-18.2473532 44.73432072 -12.53874227 30.56666007 -6.82836914 16.3996582 C-6.44279846 15.44391907 -6.05722778 14.48817993 -5.65997314 13.503479 C-4.93905075 11.71638646 -4.21883696 9.92900784 -3.49945068 8.14129639 C-3.18292542 7.35676086 -2.86640015 6.57222534 -2.5402832 5.76391602 C-2.26529495 5.08120132 -1.9903067 4.39848663 -1.70698547 3.69508362 C-1.18470958 2.44286366 -0.60676634 1.21353267 0 0 Z " fill="#FCFCFC" transform="translate(165,13)"/>
<path d="M0 0 C23.43 0 46.86 0 71 0 C71 8.25 71 16.5 71 25 C57.14 25 43.28 25 29 25 C29 33.25 29 41.5 29 50 C42.53 50 56.06 50 70 50 C70 58.25 70 66.5 70 75 C56.47 75 42.94 75 29 75 C29 82.92 29 90.84 29 99 C42.86 99 56.72 99 71 99 C71 107.25 71 115.5 71 124 C47.57 124 24.14 124 0 124 C0 83.08 0 42.16 0 0 Z " fill="#F9F9F9" transform="translate(41,13)"/>
<path d="M0 0 C-0.57977557 3.47598164 -1.46521105 6.29104698 -3.06640625 9.42578125 C-3.46923828 10.22177734 -3.87207031 11.01777344 -4.28710938 11.83789062 C-4.70798828 12.65451172 -5.12886719 13.47113281 -5.5625 14.3125 C-6.19961914 15.56643555 -6.19961914 15.56643555 -6.84960938 16.84570312 C-7.8943479 18.89996426 -8.94459762 20.95120292 -10 23 C-14.81971474 21.41708927 -19.56850355 19.6870164 -24.31640625 17.90234375 C-30.25679348 15.90492097 -37.98698611 14.22718262 -43.9453125 16.859375 C-45.78109954 18.08323303 -47.43803287 19.43803287 -49 21 C-49.75745581 26.73716579 -49.75745581 26.73716579 -46.94140625 31.5234375 C-43.64433857 34.29945464 -40.43930079 36.05676872 -36.5625 37.875 C-35.86165283 38.21668213 -35.16080566 38.55836426 -34.4387207 38.91040039 C-31.05080864 40.56023602 -27.64412165 42.1665996 -24.2265625 43.75390625 C-12.32370988 49.41630082 -2.76559402 55.80862945 3 68 C6.10053129 77.30159386 4.21407745 88.20069859 0.375 97 C-4.95630107 106.92322462 -13.98360261 112.33214295 -24.44140625 115.8125 C-44.87179551 120.53477296 -65.27387407 116.63768932 -83 106 C-84.70077164 104.71045304 -86.38276581 103.392878 -88 102 C-87.42282622 98.28713583 -86.40601794 95.58258204 -84.49609375 92.35546875 C-84.00302734 91.51435547 -83.50996094 90.67324219 -83.00195312 89.80664062 C-82.22754883 88.51016602 -82.22754883 88.51016602 -81.4375 87.1875 C-80.91736328 86.30384766 -80.39722656 85.42019531 -79.86132812 84.50976562 C-78.5805605 82.33598572 -77.2933166 80.16632913 -76 78 C-72.60939198 78.76828217 -70.20429022 79.9543079 -67.25 81.8125 C-56.90133594 88.15277136 -47.20185901 92.39216004 -34.734375 89.46875 C-32.20051599 88.48927509 -30.33025079 87.38768571 -28.5625 85.3125 C-27.69355188 81.74015773 -27.11995473 78.58626104 -28 75 C-33.26200725 68.21666038 -42.50614207 65.11125015 -50.01953125 61.58789062 C-61.42160622 56.10252921 -72.1163484 48.99348267 -76.9375 36.75 C-79.60279938 27.20489661 -78.84483043 17.63706377 -74 9 C-68.0666457 -0.78680994 -58.78224397 -6.77918245 -48.01171875 -10.34375 C-31.94247824 -13.84521875 -13.68184098 -8.66768563 0 0 Z " fill="#FBFBFB" transform="translate(329,22)"/>
<path d="M0 0 C24.23160967 -3.50641496 24.23160967 -3.50641496 34 0 C41.55600358 5.65733953 45.38844975 14.18869116 49.29394531 22.57226562 C52.02534359 28.06007784 55.47390234 32.99337509 59 38 C61.45646622 35.63498243 63.58328791 33.36805606 65.41015625 30.48828125 C65.83498291 29.82046631 66.25980957 29.15265137 66.69750977 28.46459961 C67.14795654 27.75440674 67.59840332 27.04421387 68.0625 26.3125 C68.55741943 25.57588135 69.05233887 24.8392627 69.56225586 24.08032227 C72.15010133 20.18225885 74.29572856 16.47836858 75.96875 12.1015625 C78.12255983 7.02375467 80.02134176 2.7631263 85 0 C96.14455485 -2.13692054 107.7710652 -1.02808625 119 0 C117.38570727 4.76847884 114.75522767 8.58732591 111.93359375 12.703125 C111.42691666 13.44804199 110.92023956 14.19295898 110.39820862 14.96044922 C109.31114358 16.55850405 108.22254711 18.15551801 107.13256836 19.75158691 C105.41581126 22.2819677 103.72409893 24.82762401 102.03710938 27.37792969 C92.46587746 41.76786673 92.46587746 41.76786673 86.59765625 48 C68.21164016 68.38310485 73.15956861 98.29319643 74 124 C64.43 124 54.86 124 45 124 C45.26425781 120.38417969 45.52851563 116.76835937 45.80078125 113.04296875 C47.67571208 77.34220334 41.54531287 56.25855418 18.85400391 28.83398438 C14.59501381 23.61117407 10.82738169 18.09800812 7.10546875 12.484375 C6.50535477 11.58213196 5.90524078 10.67988892 5.28694153 9.75030518 C1.14245594 3.42736782 1.14245594 3.42736782 0 0 Z " fill="#FAFAFA" transform="translate(323,165)"/>
<path d="M0 0 C29.14656123 -2.99866737 29.14656123 -2.99866737 36.62695312 1.62304688 C40.63939896 5.90057922 42.79314379 11.03854562 44.90966797 16.44677734 C46.61701896 20.44486885 49.05378293 23.84509491 51.5625 27.375 C54.15461808 31.18576221 56.66859824 35.02246473 59 39 C63.79880561 32.3340823 68.30765067 25.50728326 72.73950195 18.59399414 C73.63959045 17.19180187 74.55721115 15.80074809 75.48974609 14.41992188 C77.10713845 11.93068478 77.10713845 11.93068478 78.51416016 8.81445312 C80.39359545 5.24231285 81.99553255 2.71115532 85 0 C90.90534782 -1.47643116 96.4701005 -1.14503668 102.5 -0.75 C104.10136214 -0.6897302 105.70294253 -0.63499053 107.3046875 -0.5859375 C111.20855932 -0.45440543 115.10185989 -0.24792476 119 0 C117.62175964 2.87798984 116.07255935 5.52810418 114.31713867 8.19165039 C113.77864792 9.01093521 113.24015717 9.83022003 112.68534851 10.67433167 C111.81049553 11.99762733 111.81049553 11.99762733 110.91796875 13.34765625 C110.3079451 14.27356064 109.69792145 15.19946503 109.06941223 16.15342712 C107.77171072 18.12195256 106.47290831 20.08975264 105.1730957 22.05688477 C103.23035792 24.99762556 101.29164308 27.94098494 99.35351562 30.88476562 C93.17325827 40.25918226 86.94967579 49.6013358 80.61328125 58.87109375 C80.06028854 59.68038834 79.50729584 60.48968292 78.93754578 61.32350159 C75.13059713 66.86940287 75.13059713 66.86940287 74 68 C73.8768483 69.74838835 73.82212189 71.50164504 73.79467773 73.25415039 C73.77473251 74.37523697 73.75478729 75.49632355 73.73423767 76.65138245 C73.71752518 77.8711528 73.70081268 79.09092316 73.68359375 80.34765625 C73.6524221 82.2100016 73.6524221 82.2100016 73.62062073 84.10997009 C73.56616391 87.41599123 73.51595795 90.72202245 73.46777344 94.02813721 C73.41760145 97.3996748 73.3619467 100.77112148 73.30664062 104.14257812 C73.19846585 110.76164956 73.09948955 117.38076941 73 124 C63.76 124 54.52 124 45 124 C45.26425781 120.46796875 45.52851563 116.9359375 45.80078125 113.296875 C47.72314792 77.5198739 40.91615672 56.19681329 18.54052734 28.44921875 C13.88126812 22.66315182 9.78884966 16.56423325 5.6875 10.375 C4.10151665 8.09639561 2.51370213 5.81926711 0.91674805 3.54833984 C0 2 0 2 0 0 Z " fill="#FBFBFB" transform="translate(333,13)"/>
<path d="M0 0 C7.59921691 -0.06887508 15.19735049 -0.12861017 22.79663086 -0.16479492 C25.38162913 -0.17987962 27.96660182 -0.20035002 30.55151367 -0.22631836 C34.2674796 -0.26271442 37.98310707 -0.27972985 41.69921875 -0.29296875 C42.85459641 -0.30845261 44.00997406 -0.32393646 45.20036316 -0.33988953 C46.28110611 -0.34011612 47.36184906 -0.34034271 48.4753418 -0.34057617 C49.42354294 -0.34723801 50.37174408 -0.35389984 51.34867859 -0.36076355 C56.01044057 0.27355932 59.11454835 2.73234086 61.98046875 6.3359375 C62.50020264 6.98208008 63.01993652 7.62822266 63.55541992 8.29394531 C64.36329956 9.32406738 64.36329956 9.32406738 65.1875 10.375 C65.75122314 11.08237305 66.31494629 11.78974609 66.89575195 12.51855469 C68.60641659 14.67191991 70.30446908 16.83470728 72 19 C72.50917969 19.64549805 73.01835937 20.29099609 73.54296875 20.95605469 C81.57066338 31.14132676 81.57066338 31.14132676 84 36 C56.28 36 28.56 36 0 36 C0 24.12 0 12.24 0 0 Z " fill="#000000" transform="translate(239,342)"/>
<path d="M0 0 C5.80893556 4.33122388 9.91555574 10.18205357 11.1328125 17.41796875 C11.56652127 23.91218687 9.38923078 29.00205814 5.78125 34.328125 C1.70245701 38.8343086 -2.66600985 41.9192147 -8.83203125 42.62890625 C-16.43829722 42.66192911 -22.16751547 41.97252826 -28.03125 36.890625 C-28.753125 36.045 -29.475 35.199375 -30.21875 34.328125 C-31.0540625 33.3690625 -31.0540625 33.3690625 -31.90625 32.390625 C-35.67817224 26.46331863 -36.16779674 19.98708172 -34.7890625 13.21875 C-32.84899591 7.03927865 -28.91850799 2.53390038 -23.37109375 -0.7734375 C-15.91369338 -4.05040604 -7.09300061 -4.12789379 0 0 Z " fill="#F8F8F8" transform="translate(332.21875,429.671875)"/>
<path d="M0 0 C6.41163328 3.45916385 10.71953604 8.09365958 13.1328125 15.01171875 C14.08011275 21.7861096 14.1767042 28.2347306 10.1328125 34.01171875 C9.5965625 34.85734375 9.0603125 35.70296875 8.5078125 36.57421875 C3.24724985 41.97321726 -1.85209515 44.32807886 -9.4296875 44.57421875 C-17.11482135 44.23385152 -22.02037619 42.28428926 -27.2421875 36.63671875 C-32.01332678 31.01263837 -32.42999999 24.37165581 -32.30859375 17.2734375 C-31.49717331 11.2775431 -28.48707274 7.31102731 -24.015625 3.38671875 C-16.98223909 -1.88083836 -8.3308869 -2.87154548 0 0 Z " fill="#F7F7F7" transform="translate(204.8671875,427.98828125)"/>
<path d="M0 0 C0 11.88 0 23.76 0 36 C-10.23 36 -20.46 36 -31 36 C-26.50052029 28.12591051 -26.50052029 28.12591051 -23.79296875 24.6953125 C-23.20580078 23.94636719 -22.61863281 23.19742187 -22.01367188 22.42578125 C-21.1097168 21.28689453 -21.1097168 21.28689453 -20.1875 20.125 C-19.59646484 19.37347656 -19.00542969 18.62195313 -18.39648438 17.84765625 C-17.2050987 16.33276455 -16.01093375 14.82005438 -14.81396484 13.30957031 C-13.56156186 11.71498994 -12.32310381 10.1093928 -11.09619141 8.49511719 C-10.17652588 7.28710449 -10.17652588 7.28710449 -9.23828125 6.0546875 C-8.41324097 4.96003174 -8.41324097 4.96003174 -7.5715332 3.84326172 C-5.18717409 1.0466311 -3.71286469 0 0 0 Z " fill="#020202" transform="translate(228,342)"/>
<path d="M0 0 C3.20750829 1.62983145 5.25012751 3.9774466 7.375 6.875 C8.74267925 11.52510946 8.54172891 14.91654217 6.375 19.25 C3.31183282 22.79682516 0.69929303 24.51412726 -3.953125 25.3515625 C-7.80722626 25.63105839 -10.28584188 25.20094665 -13.375 22.8125 C-16.90097309 19.03467169 -17.7521131 16.67323656 -18.5 11.625 C-17.8288294 6.75901315 -15.5570446 4.26216007 -12 1 C-8.27083603 -0.86458199 -4.06038696 -0.56048286 0 0 Z " fill="#040404" transform="translate(325,437)"/>
<path d="M0 0 C2.13342742 3.20014113 3.45117891 6.44032585 4.8203125 10.00390625 C5.08383514 10.68299545 5.34735779 11.36208466 5.61886597 12.06175232 C6.17363893 13.49417311 6.72658767 14.92730157 7.27783203 16.36108398 C8.12398059 18.55985099 8.97758985 20.75561615 9.83203125 22.95117188 C10.37024074 24.3435765 10.90801616 25.736149 11.4453125 27.12890625 C11.82962936 28.11643639 11.82962936 28.11643639 12.22171021 29.12391663 C14 33.76987585 14 33.76987585 14 36 C4.76 36 -4.48 36 -14 36 C-11.46823192 28.40469576 -8.75271101 20.96380376 -5.875 13.5 C-5.41996094 12.30890625 -4.96492187 11.1178125 -4.49609375 9.890625 C-4.06167969 8.76140625 -3.62726563 7.6321875 -3.1796875 6.46875 C-2.78507324 5.44201172 -2.39045898 4.41527344 -1.98388672 3.35742188 C-1 1 -1 1 0 0 Z " fill="#0C0C0C" transform="translate(178,52)"/>
<path d="M0 0 C0.66 0 1.32 0 2 0 C3.85574144 4.66137345 5.70703891 9.32447725 7.55419922 13.98925781 C8.18350652 15.57665868 8.81403596 17.16357559 9.44580078 18.75 C10.35248681 21.02739033 11.25479598 23.30647201 12.15625 25.5859375 C12.44060913 26.29744965 12.72496826 27.00896179 13.01794434 27.74203491 C15 32.77225659 15 32.77225659 15 35 C5.76 35 -3.48 35 -13 35 C-9.625 23.75 -9.625 23.75 -7.51953125 18.5546875 C-6.85727539 16.91113281 -6.85727539 16.91113281 -6.18164062 15.234375 C-5.72982422 14.12578125 -5.27800781 13.0171875 -4.8125 11.875 C-4.34908203 10.72773438 -3.88566406 9.58046875 -3.40820312 8.3984375 C-2.27608834 5.59732875 -1.13995466 2.79792518 0 0 Z " fill="#0C0C0C" transform="translate(268,205)"/>
<path d="M0 0 C3.60597575 1.38101199 4.6911324 2.5313733 6.8125 5.75 C8.17749042 9.48576326 8.43094177 12.04970047 8 16 C6.48007896 19.18459646 4.71704041 21.73579966 2 24 C-1.72651773 25.24217258 -5.12942074 25.5341253 -9 25 C-13.05465111 22.89758831 -15.32279525 21.23113017 -17 17 C-17.67750664 12.15503975 -17.74672474 8.23595818 -15.1875 4 C-10.21834201 -0.54323016 -6.47500205 -0.65268021 0 0 Z " fill="#030303" transform="translate(200,437)"/>
<path d="M0 0 C1.98 0.495 1.98 0.495 4 1 C4 19.15 4 37.3 4 56 C2.02 56.495 2.02 56.495 0 57 C-1.69295345 55.30704655 -1.12749729 53.17103516 -1.12939453 50.85351562 C-1.13412277 49.20675842 -1.13412277 49.20675842 -1.13894653 47.5267334 C-1.1369223 46.33197388 -1.13489807 45.13721436 -1.1328125 43.90625 C-1.13376923 42.68925415 -1.13472595 41.4722583 -1.13571167 40.21838379 C-1.13639372 37.63924101 -1.13453772 35.06009653 -1.13037109 32.48095703 C-1.12502322 28.51721364 -1.13031529 24.55358358 -1.13671875 20.58984375 C-1.13605797 18.09114558 -1.13477682 15.59244748 -1.1328125 13.09375 C-1.13483673 11.89899048 -1.13686096 10.70423096 -1.13894653 9.4732666 C-1.13579437 8.37542847 -1.13264221 7.27759033 -1.12939453 6.14648438 C-1.12859894 5.1746521 -1.12780334 4.20281982 -1.12698364 3.20153809 C-1 1 -1 1 0 0 Z " fill="#161616" transform="translate(237,386)"/>
<path d="M0 0 C0.99 0.33 1.98 0.66 3 1 C3 12.55 3 24.1 3 36 C1.68 36 0.36 36 -1 36 C-1.02465098 31.03377651 -1.04283649 26.06758834 -1.05493164 21.10131836 C-1.0599719 19.41055684 -1.06680405 17.71979971 -1.07543945 16.02905273 C-1.08751857 13.60399293 -1.09323123 11.17899056 -1.09765625 8.75390625 C-1.10281754 7.99348526 -1.10797882 7.23306427 -1.11329651 6.44960022 C-1.11349238 4.6326743 -1.06197277 2.81586873 -1 1 C-0.67 0.67 -0.34 0.34 0 0 Z " fill="#020202" transform="translate(316,382)"/>
<path d="M0 0 C1.93166016 0.01740234 1.93166016 0.01740234 3.90234375 0.03515625 C5.19269531 0.04417969 6.48304688 0.05320312 7.8125 0.0625 C8.81152344 0.07410156 9.81054688 0.08570313 10.83984375 0.09765625 C11.46484375 2.47265625 11.46484375 2.47265625 11.83984375 5.09765625 C9.83984375 7.09765625 9.83984375 7.09765625 6.8359375 7.328125 C5.66160156 7.31394531 4.48726563 7.29976563 3.27734375 7.28515625 C1.51197266 7.27548828 1.51197266 7.27548828 -0.2890625 7.265625 C-3.16015625 7.09765625 -3.16015625 7.09765625 -4.16015625 6.09765625 C-4.28515625 3.59765625 -4.28515625 3.59765625 -4.16015625 1.09765625 C-3.16015625 0.09765625 -3.16015625 0.09765625 0 0 Z " fill="#0A0A0A" transform="translate(254.16015625,391.90234375)"/>
<path d="M0 0 C0.66 0 1.32 0 2 0 C5.69526448 7.15957493 4.15137609 14.60464468 2 22 C0 21 0 21 -1 18 C-1.09617307 15.48818571 -1.13934762 13.01083378 -1.125 10.5 C-1.12886719 9.82324219 -1.13273437 9.14648438 -1.13671875 8.44921875 C-1.13062416 5.35926233 -0.9844023 2.95320689 0 0 Z " fill="#1B1B1B" transform="translate(384,414)"/>
</svg>
