<?xml version="1.0" encoding="UTF-8"?>
<svg version="1.1" xmlns="http://www.w3.org/2000/svg" width="500" height="500">
<path d="M0 0 C165 0 330 0 500 0 C500 165 500 330 500 500 C335 500 170 500 0 500 C0 335 0 170 0 0 Z " fill="#FFFFFF" transform="translate(0,0)"/>
<path d="M0 0 C159.72 0 319.44 0 484 0 C484 58.41 484 116.82 484 177 C324.28 177 164.56 177 0 177 C0 118.59 0 60.18 0 0 Z " fill="#010101" transform="translate(8,323)"/>
<path d="M0 0 C159.72 0 319.44 0 484 0 C484 58.41 484 116.82 484 177 C324.28 177 164.56 177 0 177 C0 118.59 0 60.18 0 0 Z M4 4 C4 59.77 4 115.54 4 173 C161.08 173 318.16 173 480 173 C480 117.23 480 61.46 480 4 C322.92 4 165.84 4 4 4 Z " fill="#A6A6A6" transform="translate(8,323)"/>
<path d="M0 0 C22.11 0 44.22 0 67 0 C67 7.92 67 15.84 67 24 C50.665 24.495 50.665 24.495 34 25 C33.34 26.98 32.68 28.96 32 31 C43.55 31.33 55.1 31.66 67 32 C67 37.28 67 42.56 67 48 C63.56980469 48.07347656 63.56980469 48.07347656 60.0703125 48.1484375 C57.85947025 48.20242291 55.64873783 48.25973985 53.43798828 48.31738281 C51.89965979 48.35570301 50.36124075 48.39055056 48.82275391 48.421875 C46.61327724 48.46746059 44.40442552 48.5254634 42.1953125 48.5859375 C41.16085495 48.60326431 41.16085495 48.60326431 40.10549927 48.62094116 C36.1079846 48.64951022 36.1079846 48.64951022 33 51 C33 51.99 33 52.98 33 54 C35.9996617 55.49983085 39.11946961 55.23902055 42.4140625 55.31640625 C43.50852188 55.3475779 43.50852188 55.3475779 44.62509155 55.37937927 C46.95829763 55.44481917 49.29161721 55.50373368 51.625 55.5625 C53.20574095 55.60569053 54.78647039 55.64930499 56.3671875 55.69335938 C60.24467697 55.80129369 64.1222513 55.90040755 68 56 C68 62.93 68 69.86 68 77 C45.56 77 23.12 77 0 77 C0 51.59 0 26.18 0 0 Z " fill="#FBFBFB" transform="translate(50,357)"/>
<path d="M0 0 C2.64 0 5.28 0 8 0 C9.485 10.395 9.485 10.395 11 21 C11.66 21 12.32 21 13 21 C14.46691462 15.03454722 15.33671303 9.31768604 15.75390625 3.1875 C16 1 16 1 17 0 C18.49738124 -0.0979057 19.99942892 -0.12974864 21.5 -0.125 C22.3146875 -0.12757813 23.129375 -0.13015625 23.96875 -0.1328125 C26 0 26 0 27 1 C27.22623521 2.48437809 27.39412965 3.97777425 27.53515625 5.47265625 C27.66567383 6.82133789 27.66567383 6.82133789 27.79882812 8.19726562 C27.9293457 9.61555664 27.9293457 9.61555664 28.0625 11.0625 C28.15337891 12.01189453 28.24425781 12.96128906 28.33789062 13.93945312 C28.56256498 16.29262135 28.78308182 18.64610619 29 21 C29.99 21 30.98 21 32 21 C32.08564209 20.39937744 32.17128418 19.79875488 32.25952148 19.17993164 C32.64788015 16.47348342 33.04260329 13.76800164 33.4375 11.0625 C33.57220703 10.11697266 33.70691406 9.17144531 33.84570312 8.19726562 C33.97783203 7.29814453 34.10996094 6.39902344 34.24609375 5.47265625 C34.42676392 4.22367554 34.42676392 4.22367554 34.61108398 2.94946289 C35 1 35 1 36 0 C37.78071246 -0.08726223 39.5648314 -0.10699041 41.34765625 -0.09765625 C42.42724609 -0.09443359 43.50683594 -0.09121094 44.61914062 -0.08789062 C46.32360352 -0.07532227 46.32360352 -0.07532227 48.0625 -0.0625 C49.77276367 -0.05573242 49.77276367 -0.05573242 51.51757812 -0.04882812 C54.34510351 -0.03699747 57.1725264 -0.0205141 60 0 C60.18762462 4.78442785 59.87847587 9.17571308 59.09375 13.90234375 C57.87981417 21.32167163 57.26081327 28.73939053 56.68081665 36.22888184 C56.37380794 40.19113368 56.05159651 44.15215283 55.73046875 48.11328125 C55.66824631 48.8849765 55.60602386 49.65667175 55.54191589 50.45175171 C54.82193625 59.31516853 53.9271995 68.1559432 53 77 C44.09 77 35.18 77 26 77 C24.53804356 71.88315246 23.69300816 68.20363196 23.375 63.0625 C23.30023438 61.91910156 23.22546875 60.77570313 23.1484375 59.59765625 C23.09945312 58.74042969 23.05046875 57.88320313 23 57 C22.34 57 21.68 57 21 57 C20.17042672 59.48871983 19.75467633 61.44186988 19.46484375 64.01171875 C19.34677368 65.03591919 19.34677368 65.03591919 19.22631836 66.08081055 C19.1310083 66.94101807 19.03569824 67.80122559 18.9375 68.6875 C18.628125 71.430625 18.31875 74.17375 18 77 C8.76 77 -0.48 77 -10 77 C-10.66 73.060625 -11.32 69.12125 -12 65.0625 C-12.20882813 63.83926025 -12.41765625 62.61602051 -12.6328125 61.35571289 C-14.35900979 50.80587322 -14.82538335 43.67787142 -10.375 33.875 C-5.66149312 22.89227601 -2.74257134 11.60853351 0 0 Z " fill="#FBFBFB" transform="translate(290,357)"/>
<path d="M0 0 C1.09989761 0.00424484 2.19979523 0.00848969 3.33302307 0.01286316 C6.8277387 0.02958473 10.32186646 0.0672258 13.81640625 0.10546875 C16.19335102 0.12052397 18.57030487 0.13421091 20.94726562 0.14648438 C26.75821829 0.17690821 32.56790832 0.23564433 38.37890625 0.29296875 C38.37890625 8.21296875 38.37890625 16.13296875 38.37890625 24.29296875 C34.51558594 24.27556641 34.51558594 24.27556641 30.57421875 24.2578125 C28.08545047 24.25001838 25.59668354 24.24394363 23.10791016 24.23803711 C21.37548211 24.23300193 19.64305833 24.22617343 17.91064453 24.2175293 C15.42349192 24.2054281 12.93639538 24.19973237 10.44921875 24.1953125 C9.67208527 24.19015121 8.89495178 24.18498993 8.0942688 24.17967224 C4.10719719 24.08968823 4.10719719 24.08968823 0.37890625 25.29296875 C0.70890625 26.61296875 1.03890625 27.93296875 1.37890625 29.29296875 C3.18875 29.34904297 3.18875 29.34904297 5.03515625 29.40625 C6.64976803 29.47196094 8.26435003 29.53840646 9.87890625 29.60546875 C10.67039063 29.62802734 11.461875 29.65058594 12.27734375 29.67382812 C21.15435516 30.07402126 28.2778359 32.62548604 34.37890625 39.29296875 C38.39848227 45.85827625 39.18955198 52.715683 38.37890625 60.29296875 C36.71481366 66.01780904 34.14936873 70.60670229 29.37890625 74.29296875 C23.51803758 76.90891938 18.87634586 77.71440737 12.50390625 77.5859375 C11.69397217 77.58169266 10.88403809 77.57744781 10.04956055 77.57307434 C7.49232064 77.55643819 4.93590321 77.51881647 2.37890625 77.48046875 C0.63282398 77.46540235 -1.1132708 77.45171739 -2.859375 77.43945312 C-7.1135925 77.40658441 -11.36720425 77.35490935 -15.62109375 77.29296875 C-16.1279798 74.75250417 -16.62676249 72.21087999 -17.12109375 69.66796875 C-17.26417969 68.95511719 -17.40726563 68.24226563 -17.5546875 67.5078125 C-18.35158801 63.3715194 -18.78143431 59.52863196 -18.62109375 55.29296875 C-17.39132813 55.23238281 -16.1615625 55.17179687 -14.89453125 55.109375 C-13.26170948 55.0249187 -11.62889748 54.94027328 -9.99609375 54.85546875 C-9.18785156 54.81615234 -8.37960938 54.77683594 -7.546875 54.73632812 C-3.1695851 54.50500793 1.06437906 54.12375958 5.37890625 53.29296875 C5.04890625 51.97296875 4.71890625 50.65296875 4.37890625 49.29296875 C3.72817139 49.27314941 3.07743652 49.25333008 2.40698242 49.23291016 C-0.54028526 49.13767576 -3.4868426 49.02799057 -6.43359375 48.91796875 C-7.96983398 48.8715625 -7.96983398 48.8715625 -9.53710938 48.82421875 C-10.52001953 48.78554688 -11.50292969 48.746875 -12.515625 48.70703125 C-13.42159424 48.67561035 -14.32756348 48.64418945 -15.26098633 48.61181641 C-17.62109375 48.29296875 -17.62109375 48.29296875 -20.62109375 46.29296875 C-21.29133898 43.79667762 -21.78415478 41.45828353 -22.18359375 38.91796875 C-22.30581299 38.19988037 -22.42803223 37.48179199 -22.55395508 36.74194336 C-22.80123736 35.28211736 -23.04337173 33.82140974 -23.28027344 32.35986328 C-23.5819649 30.53026447 -23.91558407 28.70599315 -24.25390625 26.8828125 C-24.77761519 24.02454188 -25.22719608 21.17177409 -25.62109375 18.29296875 C-25.74226562 17.45894531 -25.8634375 16.62492187 -25.98828125 15.765625 C-26.2663706 12.42299107 -26.34252556 10.26626137 -24.30078125 7.51171875 C-16.88557919 0.72830521 -9.68383701 -0.14178216 0 0 Z " fill="#FAFAFA" transform="translate(195.62109375,356.70703125)"/>
<path d="M0 0 C13.2 0 26.4 0 40 0 C41.32 5.61 42.64 11.22 44 17 C44.94556352 20.10512419 45.91239741 23.17433752 46.9375 26.25 C49.61178962 34.73404211 51.34610718 43.30475367 52.875 52.0625 C53.19778931 53.88152832 53.19778931 53.88152832 53.52709961 55.73730469 C54.75367493 63.11198096 55 69.31106416 55 77 C42.13 77 29.26 77 16 77 C16 57 16 57 18 55 C20.64 55 23.28 55 26 55 C24.68 44.77 23.36 34.54 22 24 C21.01 24.33 20.02 24.66 19 25 C18.15960473 28.02414965 17.54285999 30.91702546 17 34 C16.80535156 35.0302832 16.61070312 36.06056641 16.41015625 37.12207031 C15.7543861 40.61985053 15.12369993 44.12136389 14.5 47.625 C14.27932861 48.86088867 14.05865723 50.09677734 13.83129883 51.37011719 C12.32698798 59.89734667 11.02786991 68.40326988 10 77 C4.39 77 -1.22 77 -7 77 C-6.26970773 59.14627577 -6.26970773 59.14627577 -5.0625 51 C-3.85775131 42.78093671 -3.32130859 34.53090319 -2.78540039 26.24414062 C-2.18885119 17.40501947 -1.10470191 8.83761527 0 0 Z " fill="#FBFBFB" transform="translate(354,357)"/>
<path d="M0 0 C9.9 0 19.8 0 30 0 C30.33 2.7225 30.66 5.445 31 8.25 C31.10441406 9.10110352 31.20882813 9.95220703 31.31640625 10.82910156 C31.39761719 11.5094043 31.47882813 12.18970703 31.5625 12.890625 C31.68818359 13.92751465 31.68818359 13.92751465 31.81640625 14.98535156 C31.99844086 16.98289097 32 18.99418339 32 21 C32.99 21 33.98 21 35 21 C36.485 10.605 36.485 10.605 38 0 C47.9 0 57.8 0 68 0 C66.87339479 10.13944688 66.87339479 10.13944688 65.14453125 15.328125 C64.77199219 16.45017334 64.39945312 17.57222168 64.015625 18.72827148 C63.61859375 19.89044189 63.2215625 21.0526123 62.8125 22.25 C62.40902344 23.46437744 62.00554687 24.67875488 61.58984375 25.92993164 C59.61531535 31.75879921 57.58225745 37.12041842 54.5 42.4375 C52.48358608 47.06876921 51.63220091 50.95436004 51.4140625 55.9921875 C51.35686035 57.15476074 51.2996582 58.31733398 51.24072266 59.51513672 C51.08381611 65.34186454 51.05524719 71.17142174 51 77 C39.12 77 27.24 77 15 77 C14.95875 72.215 14.9175 67.43 14.875 62.5 C14.62890129 52.23477278 14.16413418 43.68756104 9.83203125 34.25390625 C7.10054947 28.30463895 5.45634044 21.9568065 3.625 15.6875 C3.26720459 14.48641602 2.90940918 13.28533203 2.54077148 12.04785156 C0 3.39572893 0 3.39572893 0 0 Z " fill="#FCFCFC" transform="translate(398,357)"/>
<path d="M0 0 C13.53 0 27.06 0 41 0 C42.875 11.5 42.875 11.5 43.45263672 15.07617188 C43.61006348 16.03072266 43.76749023 16.98527344 43.9296875 17.96875 C44.08679199 18.93232422 44.24389648 19.89589844 44.40576172 20.88867188 C44.98633241 23.92843888 45.73516062 26.90138042 46.50073242 29.89880371 C47.34065346 33.43365967 47.90401282 37.00690352 48.47265625 40.59375 C48.60063095 41.38471069 48.72860565 42.17567139 48.86045837 42.99060059 C49.12840073 44.65086233 49.39470192 46.3113897 49.65942383 47.97216797 C50.0615088 50.49378383 50.46879129 53.01451762 50.87695312 55.53515625 C51.13832582 57.1588051 51.39940341 58.78250149 51.66015625 60.40625 C51.83986717 61.52066467 51.83986717 61.52066467 52.02320862 62.65759277 C52.13680222 63.37193481 52.25039581 64.08627686 52.36743164 64.82226562 C52.46576797 65.43767212 52.56410431 66.05307861 52.66542053 66.68713379 C53.16168828 70.1177116 53.57006001 73.56048007 54 77 C40.47 77 26.94 77 13 77 C14 59 14 59 15 56 C19.455 55.505 19.455 55.505 24 55 C23.79503906 53.91203125 23.59007812 52.8240625 23.37890625 51.703125 C21.79875154 43.144523 20.48641336 34.70512193 20 26 C18.68 26 17.36 26 16 26 C12.98331327 42.9614778 10.16544643 59.90529684 8 77 C5.36 77 2.72 77 0 77 C-0.16809448 73.25006257 -0.33422759 69.50004074 -0.5 65.75 C-0.54769531 64.68652344 -0.59539062 63.62304688 -0.64453125 62.52734375 C-0.71220703 60.99013672 -0.71220703 60.99013672 -0.78125 59.421875 C-0.82314453 58.47924805 -0.86503906 57.53662109 -0.90820312 56.56542969 C-1.04216745 52.82155448 -0.98943124 49.0844149 -0.9296875 45.33984375 C-0.91113644 43.53906579 -0.89291825 41.73828437 -0.875 39.9375 C-0.85824219 39.02677734 -0.84148437 38.11605469 -0.82421875 37.17773438 C-0.81777344 36.30310547 -0.81132813 35.42847656 -0.8046875 34.52734375 C-0.79421387 33.73062256 -0.78374023 32.93390137 -0.77294922 32.11303711 C-0.86772638 29.69722648 -0.86772638 29.69722648 -3 27 C-2.34 26.34 -1.68 25.68 -1 25 C-0.62826984 22.3817233 -0.62826984 22.3817233 -0.5859375 19.3359375 C-0.53252197 17.8207251 -0.53252197 17.8207251 -0.47802734 16.27490234 C-0.44402832 14.98793457 -0.4100293 13.7009668 -0.375 12.375 C-0.25125 8.29125 -0.1275 4.2075 0 0 Z " fill="#FBFBFB" transform="translate(122,357)"/>
<path d="M0 0 C3.3 0 6.6 0 10 0 C10.06058594 1.02480469 10.12117188 2.04960937 10.18359375 3.10546875 C10.26805026 4.46615695 10.35269567 5.82683343 10.4375 7.1875 C10.47681641 7.86103516 10.51613281 8.53457031 10.55664062 9.22851562 C10.89207267 14.67566236 10.89207267 14.67566236 12 20 C12.66 20.33 13.32 20.66 14 21 C14.99 14.07 15.98 7.14 17 0 C27.23 0 37.46 0 48 0 C42.45470713 24.55772557 42.45470713 24.55772557 38.0390625 32.68359375 C30.42205084 47.17428268 30.58725601 60.70364582 30 77 C18.12 77 6.24 77 -6 77 C-5.22684033 73.13420167 -4.54787574 70.84872603 -2.9375 67.4375 C0.47090606 59.10859501 -0.02415733 49.4540985 -3 41 C-5.70209129 36.17483698 -9.34100099 32.12247222 -13 28 C-12.21753906 27.93941406 -11.43507812 27.87882812 -10.62890625 27.81640625 C-9.61699219 27.73261719 -8.60507813 27.64882813 -7.5625 27.5625 C-6.55316406 27.48128906 -5.54382813 27.40007812 -4.50390625 27.31640625 C-2.06359221 27.26788532 -2.06359221 27.26788532 -1 26 C-0.84193469 24.07521187 -0.748865 22.1450079 -0.68359375 20.21484375 C-0.64169922 19.04501953 -0.59980469 17.87519531 -0.55664062 16.66992188 C-0.49766602 14.82237305 -0.49766602 14.82237305 -0.4375 12.9375 C-0.39431641 11.70193359 -0.35113281 10.46636719 -0.30664062 9.19335938 C-0.20015802 6.12902665 -0.09814576 3.06460927 0 0 Z " fill="#FAFAFA" transform="translate(238,357)"/>
<path d="M0 0 C3.0625 0.375 3.0625 0.375 4.9375 2.0625 C6.26857683 4.79860236 6.52483717 6.36980842 6.0625 9.375 C4.9375 11.1875 4.9375 11.1875 3.0625 12.375 C0 12.6875 0 12.6875 -2.9375 12.375 C-4.9375 10.375 -4.9375 10.375 -5.203125 8.5 C-5.19796875 7.79875 -5.1928125 7.0975 -5.1875 6.375 C-5.19265625 5.67375 -5.1978125 4.9725 -5.203125 4.25 C-4.72029891 0.84181582 -3.2225142 0.41138479 0 0 Z " fill="#D7D7D7" transform="translate(180.9375,466.625)"/>
<path d="M0 0 C6.57692308 0.57692308 6.57692308 0.57692308 8 2 C8.27314815 7.73611111 8.27314815 7.73611111 8 10 C6 12 6 12 3.0625 12.3125 C0 12 0 12 -1.9375 10.9375 C-3.6490104 7.81651045 -2.79291991 5.35466116 -2 2 C-1.34 1.34 -0.68 0.68 0 0 Z " fill="#D2D2D2" transform="translate(199,467)"/>
<path d="M0 0 C2.64 0 5.28 0 8 0 C8.75241109 3.65456815 9.40049704 7.31733897 10 11 C6.78548731 12.60725635 3.56387464 12.05748185 0 12 C0 8.04 0 4.08 0 0 Z " fill="#F3F3F3" transform="translate(156,467)"/>
<path d="M0 0 C2.31 0 4.62 0 7 0 C9.32488647 3.63263511 9.23961213 6.76685233 9 11 C8 12 8 12 6.15234375 12.09765625 C4.1015625 12.06510417 2.05078125 12.03255208 0 12 C0 8.04 0 4.08 0 0 Z " fill="#CDCDCD" transform="translate(319,467)"/>
<path d="M0 0 C1.32 0 2.64 0 4 0 C4.50833591 1.24663331 5.00631145 2.49749387 5.5 3.75 C5.7784375 4.44609375 6.056875 5.1421875 6.34375 5.859375 C7 8 7 8 7 12 C6.34 12 5.68 12 5 12 C5 11.34 5 10.68 5 10 C3.02 10 1.04 10 -1 10 C-1 10.66 -1 11.32 -1 12 C-1.99 11.67 -2.98 11.34 -4 11 C-2.68 7.37 -1.36 3.74 0 0 Z " fill="#D8D8D8" transform="translate(302,467)"/>
<path d="M0 0 C1.32 0 2.64 0 4 0 C4.50833591 1.24663331 5.00631145 2.49749387 5.5 3.75 C5.7784375 4.44609375 6.056875 5.1421875 6.34375 5.859375 C7 8 7 8 7 12 C6.34 12 5.68 12 5 12 C5 11.34 5 10.68 5 10 C3.02 10 1.04 10 -1 10 C-1 10.66 -1 11.32 -1 12 C-1.99 11.67 -2.98 11.34 -4 11 C-2.68 7.37 -1.36 3.74 0 0 Z " fill="#D8D8D8" transform="translate(251,467)"/>
<path d="M0 0 C0.99 0.103125 1.98 0.20625 3 0.3125 C3.66 1.3025 4.32 2.2925 5 3.3125 C2 4.3125 2 4.3125 -2 4.3125 C-2 5.9625 -2 7.6125 -2 9.3125 C1.465 8.8175 1.465 8.8175 5 8.3125 C4.34 9.6325 3.68 10.9525 3 12.3125 C0.125 12.4375 0.125 12.4375 -3 12.3125 C-5 10.3125 -5 10.3125 -5.265625 8.4375 C-5.26046875 7.73625 -5.2553125 7.035 -5.25 6.3125 C-5.25515625 5.61125 -5.2603125 4.91 -5.265625 4.1875 C-4.77591168 0.73070012 -3.27162459 0.34079423 0 0 Z " fill="#D6D6D6" transform="translate(285,466.6875)"/>
<path d="M0 0 C0.66 0 1.32 0 2 0 C2.33 1.32 2.66 2.64 3 4 C3.99 2.68 4.98 1.36 6 0 C6.99 0.33 7.98 0.66 9 1 C8.01 2.32 7.02 3.64 6 5 C6.309375 5.598125 6.61875 6.19625 6.9375 6.8125 C8 9 8 9 9 12 C7.125 11.6875 7.125 11.6875 5 11 C4.34 10.01 3.68 9.02 3 8 C2.67 9.32 2.34 10.64 2 12 C1.34 12 0.68 12 0 12 C0 8.04 0 4.08 0 0 Z " fill="#E9E9E9" transform="translate(218,467)"/>
<path d="M0 0 C2.64 0 5.28 0 8 0 C7.34 2.64 6.68 5.28 6 8 C4.35 8 2.7 8 1 8 C0.67 5.36 0.34 2.72 0 0 Z " fill="#838383" transform="translate(320,469)"/>
<path d="M0 0 C1.66611905 -0.042721 3.33382885 -0.04063832 5 0 C6 1 6 1 6.0625 3.5625 C6.041875 4.366875 6.02125 5.17125 6 6 C4.34385343 6.38218767 2.67542976 6.71395102 1 7 C0 6 0 6 -0.0625 2.9375 C-0.041875 1.968125 -0.02125 0.99875 0 0 Z " fill="#161616" transform="translate(199,470)"/>
<path d="M0 0 C1.2065625 0.0309375 1.2065625 0.0309375 2.4375 0.0625 C2.4375 2.0425 2.4375 4.0225 2.4375 6.0625 C0.78135343 6.44468767 -0.88707024 6.77645102 -2.5625 7.0625 C-3.5625 6.0625 -3.5625 6.0625 -3.6875 3.5625 C-3.51717518 0.15600356 -3.41884482 0.08338646 0 0 Z " fill="#151515" transform="translate(181.5625,469.9375)"/>
<path d="M0 0 C2.64 0 5.28 0 8 0 C8.33 1.65 8.66 3.3 9 5 C7.02 5 5.04 5 3 5 C3 4.01 3 3.02 3 2 C2.34 1.67 1.68 1.34 1 1 C1 4.63 1 8.26 1 12 C0.67 12 0.34 12 0 12 C0 8.04 0 4.08 0 0 Z " fill="#7A7A7A" transform="translate(156,467)"/>
<path d="M0 0 C0.33 0 0.66 0 1 0 C1.33 1.98 1.66 3.96 2 6 C5.87797662 6.43386092 5.87797662 6.43386092 7.75 4.5 C8.1625 4.005 8.575 3.51 9 3 C8.125 7.875 8.125 7.875 7 9 C4.0625 9.1875 4.0625 9.1875 1 9 C-1 7 -1 7 -1.1875 3.9375 C-1 1 -1 1 0 0 Z " fill="#F0F0F0" transform="translate(177,470)"/>
<path d="M0 0 C2.31 0 4.62 0 7 0 C7 1.32 7 2.64 7 4 C3.98968256 4.93423645 3.13349732 5.04449911 0 4 C0 2.68 0 1.36 0 0 Z " fill="#848484" transform="translate(159,474)"/>
<path d="M0 0 C0.66 0 1.32 0 2 0 C2.125 2.875 2.125 2.875 2 6 C0 8 0 8 -3.125 8.125 C-4.548125 8.063125 -4.548125 8.063125 -6 8 C-6 7.34 -6 6.68 -6 6 C-4.35 5.67 -2.7 5.34 -1 5 C-0.67 3.35 -0.34 1.7 0 0 Z " fill="#F1F1F1" transform="translate(205,471)"/>
<path d="M0 0 C0.66 0 1.32 0 2 0 C2.042721 1.66611905 2.04063832 3.33382885 2 5 C1 6 1 6 -2.5625 6.0625 C-3.696875 6.041875 -4.83125 6.02125 -6 6 C-6 4.35 -6 2.7 -6 1 C-5.67 1.99 -5.34 2.98 -5 4 C-3.35 4 -1.7 4 0 4 C0 2.68 0 1.36 0 0 Z " fill="#F1F1F1" transform="translate(326,473)"/>
<path d="M0 0 C0.33 0.66 0.66 1.32 1 2 C1.99 2 2.98 2 4 2 C4.33 3.32 4.66 4.64 5 6 C3.02 6 1.04 6 -1 6 C-0.67 4.02 -0.34 2.04 0 0 Z " fill="#A1A1A1" transform="translate(301,469)"/>
<path d="M0 0 C0.33 0.66 0.66 1.32 1 2 C1.99 2 2.98 2 4 2 C4.33 3.32 4.66 4.64 5 6 C3.02 6 1.04 6 -1 6 C-0.67 4.02 -0.34 2.04 0 0 Z " fill="#A1A1A1" transform="translate(250,469)"/>
<path d="M0 0 C0.33 0 0.66 0 1 0 C1.66 2.64 2.32 5.28 3 8 C1.68 7.67 0.36 7.34 -1 7 C-1.04254356 5.00045254 -1.04080783 2.99958364 -1 1 C-0.67 0.67 -0.34 0.34 0 0 Z " fill="#F7F7F7" transform="translate(177,470)"/>
<path d="M0 0 C1.98 0 3.96 0 6 0 C5.67 0.99 5.34 1.98 5 3 C2.69 3.33 0.38 3.66 -2 4 C-1.34 2.68 -0.68 1.36 0 0 Z " fill="#B0B0B0" transform="translate(178,467)"/>
</svg>
